<?xml version="1.0" encoding="utf-8"?>
<!-- Generator: Adobe Illustrator 21.1.0, SVG Export Plug-In . SVG Version: 6.00 Build 0)  -->
<svg version="1.1" id="APM_stacked" xmlns="http://www.w3.org/2000/svg" xmlns:xlink="http://www.w3.org/1999/xlink" x="0px"
	 y="0px" viewBox="0 0 117 22.5" style="enable-background:new 0 0 117 22.5;" xml:space="preserve">
<style type="text/css">
	.st0{fill:none;}
	.st1{display:none;}
	.st2{display:inline;fill:none;}
	.st3{display:inline;}
	.st4{fill:#B5121B;}
</style>
<rect x="-9.5" y="-18.3" class="st0" width="136.8" height="57.6"/>
<g id="spacers_copy" class="st1">
	<rect x="36" y="1.6" class="st2" width="30.1" height="32.5"/>
</g>
<g class="st1">
	<path class="st3" d="M113,13.9h-0.5v1.4h-0.3v-1.4h-0.5v-0.2h1.3V13.9z M114.2,14.8l0.4-1.2h0.5v1.6h-0.3v-1.3l0,0l-0.5,1.3h-0.2
		l-0.5-1.3l0,0v1.3h-0.3v-1.5h0.5L114.2,14.8z"/>
</g>
<g>
	<g>
		<g>
			<g>
				<g>
					<path class="st4" d="M0.7,11.3c0,6,4.8,10.8,10.8,10.8c5.9,0,10.8-4.8,10.8-10.8S17.5,0.5,11.5,0.5C5.6,0.5,0.7,5.3,0.7,11.3z
						 M6.2,11.3C6.2,8.4,8.6,6,11.5,6s5.3,2.4,5.3,5.3s-2.4,5.3-5.3,5.3C8.6,16.6,6.2,14.2,6.2,11.3z"/>
				</g>
			</g>
		</g>
		<g>
			<g>
				<g>
					<path d="M30.9,1h2.4l2.9,8h-2.5l-0.3-1.1h-2.5L30.5,9H28L30.9,1z M32.8,6.1l-0.7-2.4l0,0l-0.8,2.5h1.5V6.1z"/>
					<path d="M36.6,1h3.5l1.1,4.7l0,0L42.3,1h3.5v8h-2.3V3.9l0,0L42.1,9h-1.8l-1.4-5.1l0,0V9h-2.3C36.6,9,36.6,1,36.6,1z"/>
					<path d="M47.1,1h6.6v2h-4.1v1h3.8v1.9h-3.8v1h4.3v2h-6.7L47.1,1L47.1,1z"/>
					<path d="M54.9,1h4.7c1.4,0,2.6,0.8,2.6,2.3c0,0.8-0.4,1.7-1.2,2c0.7,0.3,1.1,1,1.2,2c0,0.4,0,1.3,0.3,1.7H60
						c-0.1-0.4-0.2-0.8-0.2-1.2c-0.1-0.8-0.1-1.6-1.1-1.6h-1.3V9h-2.5V1z M57.4,4.5h1.3c0.5,0,1.1-0.1,1.1-0.8
						c0-0.5-0.3-0.8-1.2-0.8h-1.1v1.6H57.4z"/>
					<path d="M63.2,1h2.5v8h-2.5V1z"/>
					<path d="M71.8,4c0-0.3-0.3-1.2-1.3-1.2C69.3,2.8,69,3.9,69,5s0.4,2.2,1.5,2.2c0.8,0,1.1-0.6,1.3-1.3h2.4c0,1.6-1.3,3.3-3.6,3.3
						c-2.6,0-4-1.8-4-4.2c0-2.5,1.6-4.2,4-4.2C72.8,0.8,74,2,74.2,4H71.8z"/>
					<path d="M77.4,1h2.4l2.9,8h-2.5l-0.3-1.1h-2.5L77,9h-2.5L77.4,1z M79.4,6.1l-0.7-2.4l0,0l-0.8,2.5h1.5V6.1z"/>
					<path d="M83.2,1h2.5L88,5.3l0,0V1h2.3v8h-2.4l-2.4-4.4l0,0V9h-2.3V1z"/>
					<path d="M28.1,13.6h4.1c2.2,0,2.9,1.6,2.9,2.7c0,1.9-1.3,2.8-3.1,2.8h-1.5v2.4H28L28.1,13.6L28.1,13.6z M30.5,17.3h1
						c0.6,0,1.3,0,1.3-0.8c0-0.7-0.6-0.8-1.2-0.8h-1.1V17.3z"/>
					<path d="M43.1,18.5c0,2.2-1.2,3.3-3.6,3.3c-2.4,0-3.6-1.1-3.6-3.3v-4.9h2.5v4.3c0,0.8,0,1.8,1.2,1.8s1.2-1,1.2-1.8v-4.3h2.5
						v4.9H43.1z"/>
					<path d="M44.3,13.6h4.4c2.1,0,2.5,1.2,2.5,2c0,0.8-0.4,1.2-1,1.6c0.7,0.2,1.4,0.8,1.4,2c0,1.6-1.4,2.4-2.8,2.4h-4.5
						C44.3,21.6,44.3,13.6,44.3,13.6z M46.8,16.7h1.3c0.5,0,0.8-0.1,0.8-0.7c0-0.4-0.3-0.5-0.8-0.5h-1.3V16.7z M46.8,19.7h1.4
						c0.5,0,1-0.1,1-0.8c0-0.5-0.3-0.7-0.9-0.7h-1.5V19.7z"/>
					<path d="M52.5,13.6H55v5.9h3.5v2h-6V13.6z"/>
					<path d="M59.5,13.6H62v8h-2.5V13.6z"/>
					<path d="M68.2,16.6c0-0.3-0.3-1.2-1.3-1.2c-1.1,0-1.5,1.1-1.5,2.2c0,1.1,0.4,2.2,1.5,2.2c0.8,0,1.2-0.6,1.3-1.3h2.4
						c0,1.6-1.3,3.3-3.6,3.3c-2.6,0-4-1.8-4-4.2c0-2.5,1.6-4.2,4-4.2c2.2,0,3.4,1.2,3.6,3.2H68.2z"/>
					<path d="M75.2,13.6h3.5l1.1,4.7l0,0l1.1-4.7h3.6v8h-2.3v-5.1l0,0l-1.4,5.1H79l-1.4-5.1l0,0v5.1h-2.3L75.2,13.6L75.2,13.6z"/>
					<path d="M85.7,13.6h6.6v2h-4.1v1H92v1.9h-3.8v1h4.3v2h-6.7v-7.9H85.7z"/>
					<path d="M93.5,13.6h4c2.7,0,3.6,2,3.6,4c0,2.4-1.3,4-4.1,4h-3.5V13.6z M96,19.5h1c1.5,0,1.8-1.2,1.8-2c0-0.5-0.2-1.9-1.9-1.9
						h-0.8L96,19.5L96,19.5z"/>
					<path d="M102.2,13.6h2.5v8h-2.5V13.6z"/>
					<path d="M108,13.6h2.4l2.9,8h-2.5l-0.3-1.1H108l-0.4,1.1h-2.5L108,13.6z M110,18.7l-0.7-2.5l0,0l-0.8,2.5H110z"/>
				</g>
			</g>
		</g>
	</g>
	<g>
		<path d="M116.3,15.4c0,1-0.8,1.7-1.8,1.7s-1.8-0.8-1.8-1.7c0-1,0.8-1.8,1.8-1.8C115.5,13.6,116.3,14.4,116.3,15.4z M113,15.4
			c0,0.8,0.6,1.5,1.5,1.5c0.8,0,1.5-0.7,1.5-1.5c0-0.8-0.6-1.5-1.5-1.5C113.7,13.9,113,14.5,113,15.4z M114.1,16.4h-0.2v-2h0.8
			c0.5,0,0.7,0.2,0.7,0.6c0,0.4-0.2,0.5-0.5,0.6l0.6,0.9h-0.3l-0.6-0.9h-0.4L114.1,16.4L114.1,16.4z M114.5,15.3
			c0.3,0,0.6,0,0.6-0.4c0-0.3-0.2-0.3-0.5-0.3h-0.5v0.7H114.5z"/>
	</g>
</g>
</svg>
